<?xml version="1.0" encoding="UTF-8"?>
<svg id="Layer_1" xmlns="http://www.w3.org/2000/svg" version="1.1" viewBox="0 0 378 104">
  <!-- Generator: Adobe Illustrator 29.1.0, SVG Export Plug-In . SVG Version: 2.1.0 Build 142)  -->
  <defs>
    <style>
      .st0 {
        fill: #ee4023;
      }

      .st1 {
        fill: #404041;
      }
    </style>
  </defs>
  <g>
    <path class="st1" d="M130.62807,34.45445h-17.07578c-.58413,0-1.05766.47353-1.05766,1.05766v32.34671c0,.58413.47353,1.05766,1.05766,1.05766h6.52805c.58413,0,1.05766-.47353,1.05766-1.05766v-7.05163c0-.29206.23676-.52883.52883-.52883h8.9104c1.4008,0,2.74438-.55578,3.73583-1.54536l2.55921-2.47047c.99391-.99203,1.55245-2.33864,1.55245-3.74292v-10.27367c0-1.34932-.53668-2.64324-1.4917-3.59645l-2.71532-2.71017c-.95265-.95085-2.24364-1.48487-3.58962-1.48487ZM121.70335,40.92573h5.54878c.37354,0,.73182.1482.99621.41208l1.13728,1.27008c.26505.26454.414.62364.414.99812v7.63937c0,.37447-.14894.73357-.41398.99811l-1.10249,1.13273c-.26439.26389-.62268.4121-.99622.4121h-5.58357c-.29206,0-.52883-.23676-.52883-.52883v-11.80494c0-.29206.23676-.52883.52883-.52883Z"/>
    <path class="st1" d="M319.93524,39.87317v-4.36107c0-.58413-.47353-1.05766-1.05766-1.05766h-21.65393c-.58413,0-1.05766.47353-1.05766.92778v32.34671c0,.71401.47353,1.18754,1.05766,1.18754h6.50975c.58413,0,1.05766-.47353,1.05766-1.05766v-12.32226c0-.29206.23676-.52883.52883-.52883h11.35118c.58413,0,1.05766-.47353,1.05766-1.05766v-4.49094c0-.58413-.47353-1.05766-1.05766-1.05766h-11.35118c-.29206,0-.52883-.23676-.52883-.52883v-6.41299c0-.29206.23676-.52883.52883-.52883h13.55769c.58413,0,1.05766-.47353,1.05766-1.05766Z"/>
    <path class="st1" d="M348.02616,39.87742v-4.36531c0-.58413-.47353-1.05766-1.05766-1.05766h-21.65393c-.58413,0-1.05766.47353-1.05766,1.05766v32.34671c0,.58413.47353,1.05766,1.05766,1.05766h21.65393c.58413,0,1.05766-.47353,1.05766-1.05766v-4.36938c0-.58413-.47353-1.05766-1.05766-1.05766h-13.55763c-.29206,0-.52883-.23676-.52883-.52883v-6.36639c0-.29206.23676-.52883.52883-.52883h11.35112c.58413,0,1.05766-.47353,1.05766-1.05766v-4.49094c0-.58413-.47353-1.05766-1.05766-1.05766h-11.35112c-.29206,0-.52883-.23676-.52883-.52883v-6.40874c0-.29206.23676-.52883.52883-.52883h13.55763c.58413,0,1.05766-.47353,1.05766-1.05766Z"/>
    <path class="st1" d="M191.04597,34.45445h-10.16557c-1.4008,0-2.74437.55578-3.73582,1.54535l-2.59397,2.58905c-.99392.99203-1.55246,2.33865-1.55246,3.74293v18.74204c0,1.40428.55854,2.7509,1.55246,3.74293l2.55923,2.55437c.99145.98957,2.33502,1.54535,3.73582,1.54535h10.23505c1.4008,0,2.74437-.55578,3.73582-1.54535l2.55923-2.55437c.99392-.99203,1.55246-2.33865,1.55246-3.74293v-18.74204c0-1.40428-.55854-2.7509-1.55246-3.74293l-2.59397-2.58905c-.99145-.98957-2.33503-1.54535-3.73582-1.54535ZM187.77533,62.31021h-3.62113c-.37355,0-.73184-.14821-.99622-.4121l-1.10249-1.10041c-.26504-.26454-.41398-.62364-.41398-.99811v-16.32211c0-.37447.14894-.73357.41398-.99811l1.13723-1.13508c.26439-.26389.62268-.4121.99623-.4121h3.55166c.37354,0,.73182.1482.99621.41208l1.13728,1.1351c.26505.26454.414.62364.414.99812v16.32208c0,.37448-.14895.73358-.414.99813l-1.10254,1.10042c-.26439.26388-.62267.41208-.99621.41208Z"/>
    <path class="st1" d="M211.87496,59.92333v-16.44296c0-.37448.14895-.73358.414-.99812l1.13728-1.1351c.26439-.26388.62267-.41208.99621-.41208h13.70018c.58413,0,1.05766-.47353,1.05766-1.05766v-4.36721c0-.58413-.47353-1.05766-1.05766-1.05766h-16.99052c-1.40081,0-2.74439.55579-3.73584,1.54537l-2.59393,2.58903c-.99391.99203-1.55244,2.33864-1.55244,3.74291v18.74397c0,1.40427.55853,2.75088,1.55244,3.74291l2.55919,2.55436c.99146.98958,2.33504,1.54537,3.73584,1.54537h17.02495c.58413,0,1.05766-.47353,1.05766-1.05766v-15.05769c0-.58413-.47353-1.05766-1.05766-1.05766h-6.50981c-.58413,0-1.05766.47353-1.05766,1.05766v9.104c0,.29206-.23676.52883-.52883.52883h-5.63837c-.37355,0-.73184-.14821-.99622-.4121l-1.10249-1.10041c-.26504-.26454-.41398-.62364-.41398-.99811Z"/>
    <path class="st1" d="M170.80851,67.88018l-5.31099-10.01737c-.14576-.27396-.09527-.61102.12437-.83024l1.50211-1.49926c.99392-.99203,1.55245-2.33865,1.55245-3.74293v-9.45861c0-1.40428-.55854-2.7509-1.55246-3.74293l-2.59397-2.58905c-.99145-.98957-2.33503-1.54535-3.73582-1.54535h-16.99017c-.58413,0-1.05766.47353-1.05766,1.05766v32.34671c0,.58413.47353,1.05766,1.05766,1.05766h6.52849c.58413,0,1.05766-.47353,1.05766-1.05766v-7.05688c0-.29206.23676-.52883.52883-.52883h4.42001c.52132,0,1.00011.28761,1.24497.74784l4.12468,7.14767c.24486.46024.72365.74784,1.24497.74784h7.23237c.53198,0,.87236-.56664.62248-1.03629ZM151.92072,40.93629h5.58319c.37355,0,.73183.14821.99622.41209l1.13725,1.13509c.26505.26454.41399.62364.41399.99812v7.03456c0,.37448-.03414.64795-.25925.99365l-1.45822,1.8341c-.31564.35248-.62267.41209-.99622.41209h-5.41696c-.29206,0-.52883-.23676-.52883-.52883v-11.76205c0-.29206.23676-.52883.52883-.52883Z"/>
    <path class="st1" d="M369.59803,35.51211v15.91573c0,.18182-.24188.2446-.3303.08573l-7.79649-15.987c-.36834-.6618-1.0663-1.07211-1.82369-1.07211h-6.24204c-.58413,0-1.05766.47353-1.05766,1.05766v32.34671c0,.58413.47353,1.05766,1.05766,1.05766h6.50978c.58413,0,1.05766-.47353,1.05766-1.05766v-15.90353c0-.18182.24188-.2446.3303-.08573l7.66727,15.74209c.44829.80544,1.29774,1.30482,2.21954,1.30482h6.03022c.58413,0,1.05766-.47353,1.05766-1.05766v-32.34671c0-.58413-.47353-1.05766-1.05766-1.05766h-6.56458c-.58413,0-1.05766.47353-1.05766,1.05766Z"/>
    <path class="st1" d="M286.33023,68.91647h6.57779c.69334,0,1.19916-.66197,1.02292-1.33871l-7.74424-31.78893c-.20374-.78234-.9048-1.32747-1.70633-1.3268l-11.25664.00888c-.80043.00067-1.49994.54553-1.7034,1.3268l-7.74191,31.78006c-.17624.67674.32958,1.33872,1.02292,1.33872h6.58839c.64077,0,1.20099-.43599,1.36388-1.06142l1.27048-5.85623c.06108-.23454.27117-.39803.51146-.39803h8.62889c.2403,0,.45039.16351.51146.39805l1.29044,5.85614c.16287.62546.7231,1.06148,1.3639,1.06148ZM276.02477,54.93368c-.23111,0-.39972-.22066-.34097-.44624l2.75264-12.54802c.05023-.19152.22193-.32492.41824-.32492h0c.19631,0,.36801.13339.41824.32492l2.75264,12.54802c.05875.22558-.10986.44624-.34097.44624h-5.65982Z"/>
    <path class="st1" d="M261.60496,67.88018l-5.31099-10.01737c-.14576-.27396-.09527-.61102.12437-.83024l1.50211-1.49926c.99392-.99203,1.55245-2.33865,1.55245-3.74293v-9.45861c0-1.40428-.55854-2.7509-1.55246-3.74293l-2.59397-2.58905c-.99145-.98957-2.33503-1.54535-3.73582-1.54535h-16.99017c-.58413,0-1.05766.47353-1.05766,1.05766v32.34671c0,.58413.47353,1.05766,1.05766,1.05766h6.52849c.58413,0,1.05766-.47353,1.05766-1.05766v-7.05688c0-.29206.23676-.52883.52883-.52883h4.42001c.52132,0,1.00011.28761,1.24497.74784l4.12468,7.14767c.24486.46024.72365.74784,1.24497.74784h7.23237c.53198,0,.87236-.56664.62248-1.03629ZM242.71717,40.93629h5.58319c.37355,0,.73183.14821.99622.41209l1.13725,1.13509c.26505.26454.41399.62364.41399.99812v7.03456c0,.37448-.03414.64795-.25925.99365l-1.45822,1.8341c-.31564.35248-.62267.41209-.99622.41209h-5.41696c-.29206,0-.52883-.23676-.52883-.52883v-11.76205c0-.29206.23676-.52883.52883-.52883Z"/>
  </g>
  <path class="st0" d="M85.45349,23.93618L46.59249.72315c-1.61418-.9642-3.62744-.9642-5.24163,0L2.48987,23.93618c-1.54424.9224-2.48987,2.58872-2.48987,4.38748v46.73118c0,1.79876.94562,3.46508,2.48987,4.38748l15.09826,9.01871v.00007-.00007s8.79488,5.25347,8.79488,5.25347v-21.01257l16.42386,9.81049c.71742.42856,1.6122.42856,2.32962,0l24.11159-14.40267c.68633-.40998,1.10661-1.15057,1.10661-1.94998v-28.94097c0-.79948-.42028-1.54007-1.10661-1.95005l-7.68773-4.59217-26.38301,15.7595v10.50635l8.79434,5.25314,8.79433-5.25314-8.79433-5.25321,17.58867-10.50629v21.01264l-17.58867,10.50635-17.58867-10.50635v-21.01264l26.383-15.7595-7.62952-4.55735c-.71742-.42856-1.6122-.42856-2.32961,0l-24.11161,14.40267c-.68632.40998-1.10659,1.15057-1.1066,1.95005l-.00042,40.73601-7.59508-4.53681c-.74353-.44408-1.19883-1.24643-1.19883-2.11249v-39.23252c0-.86606.4553-1.6684,1.19883-2.11249L42.7098,10.4177c.7772-.46423,1.74655-.46423,2.52375,0l32.71664,19.5428c.74352.44408,1.19882,1.24643,1.19882,2.11249v39.23252c0,.86606-.4553,1.6684-1.19882,2.11249l-32.71664,19.5428c-.7772.46423-1.74655.46423-2.52375,0l-7.53246-4.49938v10.50629l6.17353,3.68764c1.61418.9642,3.62744.9642,5.24163,0l38.861-23.21303c1.54424-.9224,2.48986-2.58872,2.48986-4.38748V28.32366c0-1.79876-.94561-3.46508-2.48986-4.38748Z"/>
</svg>