<?xml version="1.0" encoding="utf-8"?>
<!-- Generator: Adobe Illustrator 26.2.1, SVG Export Plug-In . SVG Version: 6.00 Build 0)  -->
<svg version="1.1" id="Layer_1" xmlns="http://www.w3.org/2000/svg" xmlns:xlink="http://www.w3.org/1999/xlink" x="0px" y="0px"
	 viewBox="0 0 1720 850" style="enable-background:new 0 0 1720 850;" xml:space="preserve">
<style type="text/css">
	.st0{fill-rule:evenodd;clip-rule:evenodd;}
</style>
<g>
	<rect x="269.54" y="159.59" class="st0" width="100" height="250"/>
	<path d="M419.54,9.59h-200h-100v90v310h100v-310h175c13.81,0,25,11.19,25,25v285h100v-310v-15c0-41.42-33.58-75-75-75H419.54z"/>
	<path d="M1179.54,219.59c0,0,50,1,50,59.96c0,0.35,0,130.04,0,130.04h-100v-117c0-23.75-19.25-43-43-43h-117v-90h150
		c16.57,0,30-13.43,30-30v0c0-16.57-13.43-30-30-30l-220,0c-60.75,0-110,49.25-110,110v0c0,60.75,49.25,110,110,110h50v90h-60
		c-110.46,0-200-89.54-200-200v0c0-110.46,89.54-200,200-200h245.98c62.59,0,114.46,40.73,114.02,113.33
		S1179.54,219.59,1179.54,219.59L1179.54,219.59z"/>
	<rect x="559.54" y="9.59" class="st0" width="100" height="400"/>
	<path d="M1469.54-0.41c-110.46,0-200,94.02-200,210s89.54,210,200,210s200-94.02,200-210S1580-0.41,1469.54-0.41z M1469.54,325.09
		c-49.71,0-90-51.71-90-115.5s40.29-115.5,90-115.5s90,51.71,90,115.5S1519.25,325.09,1469.54,325.09z"/>
</g>
<path d="M899.54,849.59h-100h0c-19.5-9.75-40-55-40-91.67V549.59c0-5.52-4.48-10-10-10h-90v310h-100v-400h210
	c46.5,0,90.41,44.72,90.41,131.35v176.97c0,48.67,29.59,87.37,39.59,87.37V849.59z"/>
<path d="M209.54,539.59h310v-90H212.36h-12.82c-110.46,0-200,89.54-200,200v0c0,110.46,89.54,200,200,200h60v-90h-10h-40
	c-60.75,0-110-49.25-110-110v0C99.54,588.84,148.79,539.59,209.54,539.59z"/>
<polygon points="519.54,689.59 519.54,599.59 279.54,599.59 279.54,849.59 519.54,849.59 519.54,759.59 379.54,759.59 
	379.54,689.59 "/>
<g>
	<rect x="879.54" y="449.59" width="260" height="90"/>
	<path d="M1159.54,599.59h240v89.88h-140v70.12h140v90H996.31c-49.33,0-96.77-37.17-96.77-110.45V599.59h100v126.96
		c0,23.75,9.86,33.04,17.48,33.04h132.52c5.52,0,10-4.48,10-10V599.59L1159.54,599.59z"/>
	<path d="M1649.38,659.59c0,0,69.72-24.07,70.15-96.67s-50.74-113.33-113.33-113.33h-446.66v90h430.69c16.57,0,30,13.43,30,30v0
		c0,16.57-13.43,30-30,30h-150.69v90h116.69c23.75,0,43.31,19.25,43.31,43v117h100c0,0,0-129.69,0-130.04
		C1699.54,660.59,1649.38,659.59,1649.38,659.59z"/>
</g>
</svg>
